<svg width="100%" height="100%" viewBox="0 0 25 24" fill="none" xmlns="http://www.w3.org/2000/svg">
<path d="M8.86448 2.47926L8.00528 2.73846C7.23895 2.9693 6.55453 3.41429 6.03261 4.02104C5.51068 4.62779 5.17299 5.37104 5.05928 6.16326C4.70288 8.64486 5.49968 11.5465 7.42088 14.8741C9.33728 18.1933 11.4469 20.3317 13.7689 21.2677C14.515 21.5683 15.3317 21.6485 16.122 21.4985C16.9122 21.3485 17.6428 20.9748 18.2269 20.4217L18.8785 19.8049C19.3006 19.405 19.5633 18.8655 19.6176 18.2865C19.6719 17.7076 19.5141 17.1286 19.1737 16.6573L17.5465 14.4013C17.3265 14.0967 17.0167 13.8686 16.6606 13.7489C16.3044 13.6293 15.9197 13.6241 15.5605 13.7341L13.0993 14.4865L13.0357 14.4985C12.7645 14.5381 12.1393 13.9513 11.3593 12.6001C10.5433 11.1865 10.3729 10.3597 10.5985 10.1461L11.8513 8.97846C12.3088 8.55167 12.6212 7.99238 12.7447 7.37904C12.8683 6.7657 12.7967 6.12907 12.5401 5.55846L11.7481 3.79326C11.5092 3.26155 11.0849 2.83497 10.5545 2.59317C10.024 2.35137 9.42376 2.31088 8.86568 2.47926H8.86448ZM10.6525 4.28526L11.4457 6.05046C11.5999 6.39274 11.6431 6.77474 11.569 7.14279C11.495 7.51085 11.3075 7.84645 11.0329 8.10246L9.77768 9.27126C8.97368 10.0309 9.24008 11.3305 10.3189 13.2001C11.3353 14.9593 12.2617 15.8281 13.2565 15.6769L13.4053 15.6457L15.9109 14.8813C16.0306 14.8445 16.1589 14.8461 16.2777 14.8859C16.3965 14.9257 16.4999 15.0017 16.5733 15.1033L18.2005 17.3593C18.3709 17.595 18.4498 17.8846 18.4227 18.1742C18.3955 18.4638 18.2641 18.7337 18.0529 18.9337L17.4013 19.5505C16.9841 19.9453 16.4623 20.2121 15.898 20.319C15.3336 20.426 14.7504 20.3688 14.2177 20.1541C12.1801 19.3333 10.2541 17.3809 8.46008 14.2741C6.66248 11.1601 5.93528 8.51166 6.24728 6.33366C6.32845 5.76763 6.56969 5.23659 6.9426 4.80309C7.3155 4.36959 7.80453 4.0517 8.35208 3.88686L9.21248 3.62766C9.49143 3.54384 9.79134 3.56434 10.0563 3.68533C10.3212 3.80633 10.5331 4.01956 10.6525 4.28526Z" fill="white"/>
</svg>
